<svg xmlns="http://www.w3.org/2000/svg" width="72" height="73" viewBox="0 0 72 73" fill="none" id="svg41541883_607">
<path d="M8 0.313965C3.588 0.313965 0 3.90196 0 8.31396V64.314C0 68.726 3.588 72.314 8 72.314H34.4844H45.6562H64C68.412 72.314 72 68.726 72 64.314V8.31396C72 3.90196 68.412 0.313965 64 0.313965H8ZM8 8.31396H64L64.0078 64.314H45.6562V48.4546H55.1172L56.5234 37.5562H45.7188V30.6108C45.7187 27.4588 46.5972 25.3296 51.1172 25.3296H56.8281V15.603C54.0481 15.319 51.2569 15.181 48.4609 15.189C40.1649 15.189 34.4844 20.2523 34.4844 29.5483V37.5718H25.1094V48.4702H34.4844V64.314H8V8.31396Z" fill="#FA6F40"></path>
</svg>