<svg xmlns="http://www.w3.org/2000/svg" width="32" height="33" viewBox="0 0 32 33" fill="none" id="svg-27609284_3193">
<path d="M17.3708 2.80322C18.8708 2.80722 19.6321 2.81522 20.2894 2.83389L20.5481 2.84322C20.8468 2.85389 21.1414 2.86722 21.4974 2.88322C22.9161 2.94989 23.8841 3.17389 24.7334 3.50322C25.6134 3.84189 26.3548 4.30056 27.0961 5.04056C27.7744 5.70687 28.299 6.51319 28.6334 7.40322C28.9628 8.25256 29.1868 9.22056 29.2534 10.6406C29.2694 10.9952 29.2828 11.2899 29.2934 11.5899L29.3014 11.8486C29.3214 12.5046 29.3294 13.2659 29.3321 14.7659L29.3334 15.7606V17.5072C29.3367 18.4798 29.3265 19.4523 29.3028 20.4246L29.2948 20.6832C29.2841 20.9832 29.2708 21.2779 29.2548 21.6326C29.1881 23.0526 28.9614 24.0192 28.6334 24.8699C28.299 25.7599 27.7744 26.5662 27.0961 27.2326C26.4298 27.9108 25.6235 28.4355 24.7334 28.7699C23.8841 29.0992 22.9161 29.3232 21.4974 29.3899L20.5481 29.4299L20.2894 29.4379C19.6321 29.4566 18.8708 29.4659 17.3708 29.4686L16.3761 29.4699H14.6308C13.6578 29.4733 12.6848 29.4631 11.7121 29.4392L11.4534 29.4312C11.1369 29.4192 10.8205 29.4055 10.5041 29.3899C9.08544 29.3232 8.11744 29.0992 7.26677 28.7699C6.37721 28.4353 5.57136 27.9107 4.90544 27.2326C4.2267 26.5664 3.70159 25.76 3.36677 24.8699C3.03744 24.0206 2.81344 23.0526 2.74677 21.6326L2.70677 20.6832L2.70011 20.4246C2.67553 19.4523 2.66442 18.4798 2.66677 17.5072V14.7659C2.66308 13.7934 2.67286 12.8208 2.69611 11.8486L2.70544 11.5899C2.71611 11.2899 2.72944 10.9952 2.74544 10.6406C2.81211 9.22056 3.03611 8.25389 3.36544 7.40322C3.70103 6.51282 4.22707 5.70647 4.90677 5.04056C5.57231 4.36262 6.37769 3.83799 7.26677 3.50322C8.11744 3.17389 9.08411 2.94989 10.5041 2.88322C10.8588 2.86722 11.1548 2.85389 11.4534 2.84322L11.7121 2.83522C12.6844 2.81153 13.6569 2.80131 14.6294 2.80456L17.3708 2.80322ZM16.0001 9.46989C14.232 9.46989 12.5363 10.1723 11.2861 11.4225C10.0358 12.6728 9.33344 14.3684 9.33344 16.1366C9.33344 17.9047 10.0358 19.6004 11.2861 20.8506C12.5363 22.1008 14.232 22.8032 16.0001 22.8032C17.7682 22.8032 19.4639 22.1008 20.7142 20.8506C21.9644 19.6004 22.6668 17.9047 22.6668 16.1366C22.6668 14.3684 21.9644 12.6728 20.7142 11.4225C19.4639 10.1723 17.7682 9.46989 16.0001 9.46989ZM16.0001 12.1366C16.5254 12.1365 17.0456 12.2398 17.5309 12.4408C18.0162 12.6417 18.4572 12.9363 18.8287 13.3077C19.2002 13.679 19.4949 14.1199 19.696 14.6052C19.8971 15.0905 20.0007 15.6106 20.0008 16.1359C20.0009 16.6612 19.8975 17.1813 19.6965 17.6667C19.4956 18.152 19.201 18.593 18.8297 18.9645C18.4583 19.336 18.0174 19.6307 17.5321 19.8318C17.0469 20.0329 16.5267 20.1365 16.0014 20.1366C14.9406 20.1366 13.9232 19.7151 13.173 18.965C12.4229 18.2148 12.0014 17.1974 12.0014 16.1366C12.0014 15.0757 12.4229 14.0583 13.173 13.3081C13.9232 12.558 14.9406 12.1366 16.0014 12.1366M23.0014 7.46989C22.5594 7.46989 22.1355 7.64548 21.8229 7.95805C21.5104 8.27061 21.3348 8.69453 21.3348 9.13656C21.3348 9.57858 21.5104 10.0025 21.8229 10.3151C22.1355 10.6276 22.5594 10.8032 23.0014 10.8032C23.4435 10.8032 23.8674 10.6276 24.18 10.3151C24.4925 10.0025 24.6681 9.57858 24.6681 9.13656C24.6681 8.69453 24.4925 8.27061 24.18 7.95805C23.8674 7.64548 23.4435 7.46989 23.0014 7.46989Z" fill="#FA6F40"></path>
</svg>